<svg xmlns="http://www.w3.org/2000/svg" xmlns:xlink="http://www.w3.org/1999/xlink" width="198" height="70" viewBox="0 0 197 70"><defs><symbol overflow="visible" id="a"><path style="stroke:none" d="M8.969-41.234H20.53l9.188 28.562 5.406-28.562h9.781L37.078 0H25.531l-9.187-28.563L10.969 0H1.156zm0 0"/></symbol><symbol overflow="visible" id="b"><path style="stroke:none" d="M7.547-30.938h9.672L11.344 0H1.688zm2.266-12.03h9.671l-1.53 8.062H8.25zm0 0"/></symbol><symbol overflow="visible" id="d"><path style="stroke:none" d="M8.969-41.234h10.344L13.03-8.031h18.11L29.67 0H1.157zm0 0"/></symbol><symbol overflow="visible" id="e"><path style="stroke:none" d="m30.828-29.969-1.437 7.688a29.073 29.073 0 0 0-5.61-2.11c-1.867-.476-3.633-.718-5.297-.718-1.898 0-3.359.257-4.39.765-1.031.5-1.547 1.227-1.547 2.172 0 .555.285.996.86 1.328.57.324 1.702.672 3.39 1.047l1.75.328c3.883.844 6.601 1.934 8.156 3.266 1.563 1.336 2.344 3.187 2.344 5.562 0 3.594-1.371 6.403-4.11 8.422C22.195-.207 18.364.797 13.438.797c-2.062 0-4.171-.168-6.328-.5A47.51 47.51 0 0 1 .531-1.187l1.453-7.766a21.67 21.67 0 0 0 5.579 2.39c1.976.532 4.007.797 6.093.797 2.02 0 3.54-.25 4.563-.75 1.02-.5 1.531-1.226 1.531-2.187 0-.656-.29-1.164-.86-1.531-.574-.375-1.757-.754-3.546-1.141l-1.75-.328c-3.438-.738-5.89-1.828-7.36-3.266-1.468-1.437-2.203-3.426-2.203-5.969 0-3.437 1.266-6.082 3.797-7.937 2.54-1.863 6.164-2.797 10.875-2.797 2.063 0 4.086.14 6.078.422 2 .281 4.016.71 6.047 1.281zm0 0"/></symbol><symbol overflow="visible" id="f"><path style="stroke:none" d="M4.781-30.938h8.875l1.047 21.266 9.078-21.265h7.625l1.11 21.218 9.03-21.218H51L37.25 0H27.031l-1-21.266L16.844 0H6.875zm0 0"/></symbol><symbol overflow="visible" id="g"><path style="stroke:none" d="M23-5.25c-1.543 1.805-3.11 3.133-4.703 3.984C16.703-.422 14.969 0 13.094 0 9.688 0 6.992-1.125 5.016-3.375c-1.98-2.258-2.97-5.344-2.97-9.25 0-2.082.345-4.164 1.032-6.25a22.42 22.42 0 0 1 2.969-5.906c1.57-2.219 3.379-3.91 5.422-5.078a12.984 12.984 0 0 1 6.594-1.766c2.113 0 3.89.43 5.328 1.281 1.437.844 2.648 2.18 3.64 4l.813-4.593h9.687L32.453-4.063c-1.031 5.539-3.25 9.632-6.656 12.28-3.406 2.657-8.137 3.985-14.188 3.985-1.867 0-3.664-.148-5.39-.437a28.854 28.854 0 0 1-5.11-1.36l1.422-7.703c1.52 1 3.04 1.738 4.563 2.219 1.52.488 3.078.734 4.672.734 3.187 0 5.632-.699 7.343-2.093 1.72-1.399 2.875-3.626 3.47-6.688zM20.312-24.5c-2.367 0-4.335 1.102-5.906 3.297-1.562 2.187-2.344 4.937-2.344 8.25 0 1.875.422 3.308 1.266 4.297.844.98 2.07 1.469 3.688 1.469 2.343 0 4.3-1.086 5.875-3.266 1.582-2.176 2.375-4.895 2.375-8.156 0-1.914-.422-3.375-1.266-4.375-.844-1.008-2.074-1.516-3.688-1.516zm0 0"/></symbol></defs><use xlink:href="#a" x="1.434" y="56.365" style="fill:#00c4ff;fill-opacity:1"/><use xlink:href="#a" x="3.34" y="55.092" style="fill:#000;fill-opacity:1"/><use xlink:href="#a" x="7.789" y="51.908" style="fill:#000;fill-opacity:1"/><use xlink:href="#a" x="5.246" y="53.182" style="fill:#fff;fill-opacity:1"/><g style="fill:#00c4ff;fill-opacity:1"><use xlink:href="#b" x="40.199" y="56.365"/><use xlink:href="#c" x="59.064" y="56.365"/></g><g style="fill:#000;fill-opacity:1"><use xlink:href="#b" x="42.105" y="55.092"/><use xlink:href="#c" x="60.97" y="55.092"/></g><g style="fill:#000;fill-opacity:1"><use xlink:href="#b" x="46.555" y="51.908"/><use xlink:href="#c" x="65.419" y="51.908"/></g><g style="fill:#fff;fill-opacity:1"><use xlink:href="#b" x="44.012" y="53.182"/><use xlink:href="#c" x="62.877" y="53.182"/></g><g style="fill:#00c4ff;fill-opacity:1"><use xlink:href="#d" x="55.449" y="56.365"/><use xlink:href="#c" x="90.52" y="56.365"/></g><g style="fill:#000;fill-opacity:1"><use xlink:href="#d" x="57.355" y="55.092"/><use xlink:href="#c" x="92.426" y="55.092"/></g><g style="fill:#000;fill-opacity:1"><use xlink:href="#d" x="61.805" y="51.908"/><use xlink:href="#c" x="96.876" y="51.908"/></g><use xlink:href="#d" x="59.262" y="53.182" style="fill:#fff;fill-opacity:1"/><g style="fill:#00c4ff;fill-opacity:1"><use xlink:href="#e" x="82.777" y="56.365"/><use xlink:href="#c" x="115.537" y="56.365"/></g><g style="fill:#000;fill-opacity:1"><use xlink:href="#e" x="84.684" y="55.092"/><use xlink:href="#c" x="117.444" y="55.092"/></g><g style="fill:#000;fill-opacity:1"><use xlink:href="#e" x="89.133" y="51.908"/><use xlink:href="#c" x="121.893" y="51.908"/></g><g style="fill:#fff;fill-opacity:1"><use xlink:href="#e" x="86.59" y="53.182"/><use xlink:href="#c" x="119.35" y="53.182"/></g><g style="fill:#00c4ff;fill-opacity:1"><use xlink:href="#f" x="108.832" y="56.365"/><use xlink:href="#c" x="159.676" y="56.365"/></g><g style="fill:#000;fill-opacity:1"><use xlink:href="#f" x="110.738" y="55.092"/><use xlink:href="#c" x="161.582" y="55.092"/></g><g style="fill:#000;fill-opacity:1"><use xlink:href="#f" x="115.188" y="51.908"/><use xlink:href="#c" x="166.031" y="51.908"/></g><g style="fill:#fff;fill-opacity:1"><use xlink:href="#f" x="112.645" y="53.182"/><use xlink:href="#c" x="163.488" y="53.182"/></g><g style="fill:#00c4ff;fill-opacity:1"><use xlink:href="#g" x="152.68" y="56.365"/><use xlink:href="#c" x="192.075" y="56.365"/></g><g style="fill:#000;fill-opacity:1"><use xlink:href="#g" x="154.586" y="55.092"/><use xlink:href="#c" x="193.982" y="55.092"/></g><g style="fill:#000;fill-opacity:1"><use xlink:href="#g" x="159.035" y="51.908"/><use xlink:href="#c" x="198.431" y="51.908"/></g><g style="fill:#fff;fill-opacity:1"><use xlink:href="#g" x="156.492" y="53.182"/><use xlink:href="#c" x="195.888" y="53.182"/></g></svg>